<?xml version="1.0" encoding="UTF-8" standalone="no"?>
<!-- Created with Inkscape (http://www.inkscape.org/) -->

<svg
   version="1.1"
   id="svg1"
   width="2933.3333"
   height="2933.3333"
   viewBox="0 0 2933.3333 2933.3333"
   sodipodi:docname="1bed80b9-dba6-42ef-81e7-c371c8eb7848.eps"
   xmlns:inkscape="http://www.inkscape.org/namespaces/inkscape"
   xmlns:sodipodi="http://sodipodi.sourceforge.net/DTD/sodipodi-0.dtd"
   xmlns="http://www.w3.org/2000/svg"
   xmlns:svg="http://www.w3.org/2000/svg">
  <defs
     id="defs1" />
  <sodipodi:namedview
     id="namedview1"
     pagecolor="#ffffff"
     bordercolor="#000000"
     borderopacity="0.25"
     inkscape:showpageshadow="2"
     inkscape:pageopacity="0.0"
     inkscape:pagecheckerboard="0"
     inkscape:deskcolor="#d1d1d1">
    <inkscape:page
       x="0"
       y="0"
       inkscape:label="1"
       id="page1"
       width="2933.3333"
       height="2933.3333"
       margin="0"
       bleed="0" />
  </sodipodi:namedview>
  <g
     id="g1"
     inkscape:groupmode="layer"
     inkscape:label="1">
    <g
       id="group-R5">
      <path
         id="path2"
         d="M 22000,0 H 0 V 22000 H 22000 V 0"
         style="fill:#ffffff;fill-opacity:1;fill-rule:nonzero;stroke:none"
         transform="matrix(0.13333333,0,0,-0.13333333,0,2933.3333)" />
      <path
         id="path3"
         d="m 9450.11,4234.8 c -0.62,0.2 1.43,5.5 9.43,15.1 -2.52,-5 -5.12,-9.8 -7.9,-14.1 -0.77,-1.1 -1.25,-0.5 -1.53,-1 z m 2044.79,5486.6 c -232.6,37.1 -482,0.5 -701.4,-91.9 -554.6,-231.7 -956.73,-750 -1126.1,-1319.3 -359.66,-1146.8 -11.56,-2365.7 -107.39,-3527.7 -7.54,-81.6 -18.02,-162.8 -31.24,-243.5 -677.14,827.3 -1175.96,1787.8 -1494.16,2811.6 -352.47,1126.5 -476.05,2328.2 -416.05,3510.5 l 1.85,41 c 1.49,32.9 -7.39,66.5 -27.59,95.7 -5.1,18.1 -10.19,36.2 -15.54,54.2 -78.4,264.3 -167.55,528.9 -254.46,789.4 -209.9,621.7 -486.24,1420.6 -695.12,2044.5 -146.89,438.5 -299.68,898.4 -370.73,1340.8 -49.52,308.8 -62.96,628.5 12.66,933.3 182.62,725.7 956.68,1239.3 1694.61,1234.6 269.35,-2.2 520.49,-65.8 767.36,-182.7 371.52,-177.4 712.66,-446.5 1064.35,-668.2 832.45,-546.5 1722.75,-739.3 2691.25,-491.9 3.6,1 6.6,3.9 7.3,7.8 1,5.4 -2.6,10.6 -7.9,11.6 -37,6.8 -73.7,12.7 -110.3,19 -70.5,12.1 -145.3,28.1 -216.9,42.3 -998.3,210.6 -1490.2,621.1 -2172.97,1341.8 -225.64,229.4 -447.08,444.6 -718.28,633.9 -304.38,213.6 -654.77,369.2 -1019.64,446.1 -909.87,190.7 -1879.28,-107.7 -2562.54,-734.1 -340.33,-310.9 -608.12,-706.6 -757.22,-1143.9 -175.07,-507.5 -190.78,-1060.5 -98,-1585.7 105.64,-599.9 340.96,-1163.8 613.06,-1701.5 306.32,-606.2 659.66,-1189.6 1065.84,-1734.1 212.49,-283.9 438.16,-560 685.96,-814.2 C 7038.85,10254 6964.06,9645.4 6955.4,9036.9 6932.18,7356.9 7447.88,5658.5 8429.73,4287 c 130.48,-183.2 271,-361.1 416.74,-532.9 70.19,-83.6 133.99,-153.8 223.6,-227.6 62.3,-51.5 155.14,-114.2 244.07,-151.1 121.57,-53.1 256.89,-75.8 389.46,-63.9 348.1,33.3 595,288.2 699.2,601.4 25.5,73 40.8,140.2 54.3,210.5 l 5.1,33.4 10.2,66.8 c 3,22.2 7,44.5 9.1,66.7 l 6.9,66.5 6.6,66.5 c 7.6,108.4 11.7,219.6 10.3,328.1 -6,451 -93.5,902.2 -196.7,1335.6 -153,648.7 -340.92,1301.4 -281.3,1971.7 14.2,139.9 40.4,284.7 78.3,419.7 101.9,344.2 301,660.2 575.4,893.9 228.1,192.9 509.4,318.1 812.7,329.8 4.6,0.1 8.6,3.5 9.3,8.2 0.8,5.3 -2.8,10.3 -8.1,11.1"
         style="fill:#040606;fill-opacity:1;fill-rule:nonzero;stroke:none"
         transform="matrix(0.13333333,0,0,-0.13333333,0,2933.3333)" />
      <path
         id="path4"
         d="m 13584,4150.1 c -1.8,1.9 -4.2,5 -6.8,8.7 1.4,-1.1 2.9,-2.1 4.2,-3.3 7,-6.2 6.7,-9.7 2.6,-5.4 z M 17200.6,16322 c -105.1,957.4 -617.4,1767.5 -1523.2,2144.8 -337.4,140.6 -695.8,208.5 -1056.2,221.7 -297.1,16.4 -607.3,-32 -877.5,-154.4 -684.3,-300.7 -1077.7,-974.3 -1635.2,-1429.5 -210.1,-175.1 -443.9,-314 -700.5,-418.6 -3.6,-1.4 -6.2,-5 -6.1,-9.1 0,-5.5 4.4,-9.9 9.9,-9.9 506.6,-2 1002.2,234.8 1416.9,517.8 386,252.4 737,566 1163,686.3 153.9,41.8 313.7,52.6 472.3,31.7 58.9,-7.6 121.1,-15.9 179.3,-27 838.2,-152.9 1372.3,-590.7 1582.3,-1419.8 l 11.1,-42.5 5.5,-21.2 4.5,-21.8 18.7,-87.2 c 3.5,-14.4 5.4,-29.5 8.1,-44.3 l 7.7,-44.5 7.9,-44.6 c 2.8,-14.8 4.1,-30.2 6.3,-45.3 32.5,-227.2 47.4,-462.2 41.6,-691.5 -24.4,-857.3 -379.6,-1651.9 -669,-2447.5 -159.9,-439.8 -299.1,-892.9 -361.7,-1358.3 -15.4,-122.8 -29.4,-257.1 -33.8,-381.1 -28,-686.2 60.8,-1377.8 68.6,-2059.1 1.3,-130.3 0.7,-275.2 -6.8,-404.5 -0.8,-14.9 -8,-111.8 -8.5,-123.7 -3.7,-35.9 -8.3,-87.4 -12.2,-123.6 -68.5,-609.7 -227.7,-1206.8 -417.7,-1788.8 -113.2,-343.4 -239.8,-687.1 -388.4,-1016.7 -230.4,-502.5 -514.4,-985.8 -884.1,-1398.8 -10.4,-11.8 -22.7,-26.9 -33.4,-39.3 -13,-15.6 -28.4,-32.7 -44.2,-48.6 -1.1,2.8 -2.2,5.6 -3.3,8.6 l -5.4,15.8 -5,16.8 c -1.8,5.4 -3.2,11.5 -4.8,17.3 l -2.4,8.9 -2.4,10.9 -19.3,89.2 c -87,446.6 -53.8,913.4 -13.4,1364.6 32.4,346.4 62.7,701.9 82.1,1049.3 11,204.5 18.2,418.1 6.5,625.7 l -2,28.2 -4.2,56.4 -6.2,57.1 -3.2,28.5 c -6.7,49.1 -17.5,111.6 -27.9,159.8 -8,30.8 -17,70.6 -27,100.7 -70.7,232.3 -170.2,457.6 -308.2,658.1 -366.7,533.4 -928.1,748.7 -1551.3,548.9 -4.4,-1.3 -7.4,-5.6 -6.9,-10.4 0.6,-5.3 5.4,-9.2 10.7,-8.6 138.5,14.6 277,16 410.5,-4 65.6,-9.5 131.7,-25.1 194.8,-45 538.9,-172 798.7,-703.3 889.7,-1226.9 4.3,-19.8 7.3,-47.2 10,-67.2 l 1.5,-10.8 0.9,-11.2 c 2,-25.9 5.3,-65.6 5.1,-90.9 2.4,-77.7 -1.6,-161.4 -7.1,-239 -31.8,-370.9 -103.5,-743.1 -165.1,-1112.1 -61.3,-347.3 -130.4,-698 -165.9,-1051.5 -36.6,-358.6 -38,-730.9 33.3,-1089.3 16.4,-72.3 35.3,-139.4 66.2,-210.9 117.3,-284.2 384.3,-475.1 702,-425.3 218.3,34.6 398,180 538.9,336.7 158.6,161.6 308.2,336.8 443.8,518.3 264.3,356.4 489.7,742.5 676.8,1144 140.9,297.2 260.8,607.2 355,922.3 238.7,807.5 318,1665 214.8,2501.4 -115.3,886.5 -361.5,1772.6 -208.1,2666.7 53.2,296 147.8,584 268.4,859.7 158.3,366.9 379.1,747.8 573.8,1099.7 239.6,433 466.6,882.5 598.2,1363.9 130.5,467.1 165.3,962.6 110.9,1444.5"
         style="fill:#040606;fill-opacity:1;fill-rule:nonzero;stroke:none"
         transform="matrix(0.13333333,0,0,-0.13333333,0,2933.3333)" />
    </g>
  </g>
</svg>
